<svg width="18" height="18" viewBox="0 0 18 18" fill="none" xmlns="http://www.w3.org/2000/svg">
<path d="M17.64 9.20028C17.64 8.46028 17.58 7.92028 17.45 7.36029H9V10.7003H13.96C13.86 11.5303 13.32 12.7803 12.12 13.6202L12.1032 13.7321L14.7749 15.8018L14.96 15.8203C16.66 14.2503 17.64 11.9403 17.64 9.20028Z" fill="#4285F4"/>
<path d="M9.00004 17.9998C11.43 17.9998 13.47 17.1997 14.96 15.8198L12.12 13.6197C11.36 14.1497 10.34 14.5197 9.00004 14.5197C6.62006 14.5197 4.60008 12.9498 3.88001 10.7798L3.77446 10.7887L0.996353 12.9388L0.960022 13.0397C2.44001 15.9797 5.48001 17.9998 9.00004 17.9998Z" fill="#34A853"/>
<path d="M3.87996 10.7802C3.68997 10.2202 3.58001 9.62017 3.58001 9.0002C3.58001 8.38016 3.68997 7.78018 3.86997 7.22019L3.86493 7.10092L1.05201 4.91638L0.959977 4.96016C0.350004 6.18017 0 7.5502 0 9.0002C0 10.4502 0.350004 11.8201 0.959977 13.0402L3.87996 10.7802Z" fill="#FBBC05"/>
<path d="M9.00004 3.47998C10.69 3.47998 11.83 4.20997 12.48 4.82001L15.02 2.34C13.4601 0.890004 11.43 0 9.00004 0C5.48001 0 2.44001 2.01998 0.960022 4.95996L3.87001 7.21999C4.60008 5.05 6.62006 3.47998 9.00004 3.47998Z" fill="#EB4335"/>
</svg>
