<svg width="18" height="16" viewBox="0 0 18 16" fill="none" xmlns="http://www.w3.org/2000/svg">
<path d="M8.88753 9.33168C9.62351 9.33168 10.2201 8.73505 10.2201 7.99907C10.2201 7.2631 9.62351 6.66647 8.88753 6.66647C8.15156 6.66647 7.55493 7.2631 7.55493 7.99907C7.55493 8.73505 8.15156 9.33168 8.88753 9.33168Z" fill="#A6ACC3"/>
<path d="M11.8104 13.4362L10.6643 12.2457L10.6022 12.1835L9.47388 11.0553C9.29484 11.0866 9.11368 11.1045 8.93196 11.1086C8.5199 11.1145 8.11079 11.0384 7.7284 10.8848C7.346 10.7311 6.99796 10.503 6.70451 10.2137C6.41105 9.92439 6.17803 9.57962 6.019 9.19944C5.85997 8.81927 5.77809 8.41127 5.77814 7.99917C5.78226 7.81745 5.80008 7.63629 5.83144 7.45725L4.05464 5.68045L2.66873 4.33008C1.66602 5.27487 0.807008 6.36135 0.119023 7.55497C0.0410497 7.69003 0 7.84323 0 7.99917C0 8.15512 0.0410497 8.30832 0.119023 8.44337C0.678716 9.41173 3.67263 14.218 8.90531 14.218H9.12741C10.1114 14.1888 11.0826 13.9873 11.9969 13.6228L11.8104 13.4362Z" fill="#A6ACC3"/>
<path d="M5.85809 2.45534L8.34562 4.94286C8.52466 4.9115 8.70582 4.89368 8.88754 4.88956C9.7122 4.88956 10.5031 5.21716 11.0862 5.80028C11.6693 6.38341 11.9969 7.1743 11.9969 7.99896C11.9928 8.18069 11.975 8.36184 11.9436 8.54089L14.3246 10.9218L15.0708 11.6681C16.0861 10.7258 16.9572 9.63914 17.6561 8.44316C17.734 8.30811 17.7751 8.15491 17.7751 7.99896C17.7751 7.84302 17.734 7.68982 17.6561 7.55476C17.0875 6.56864 13.9603 1.62025 8.64767 1.78016C7.66372 1.80934 6.69251 2.0108 5.77814 2.37539L5.85809 2.45534Z" fill="#A6ACC3"/>
<path d="M16.6255 14.4757L15.4706 13.3296L13.6938 11.5528L5.23622 3.08639L3.93027 1.78044L2.41111 0.261271C2.32827 0.178438 2.22994 0.112731 2.12171 0.0679022C2.01348 0.0230732 1.89749 0 1.78034 0C1.6632 0 1.5472 0.0230732 1.43897 0.0679022C1.33075 0.112731 1.23241 0.178438 1.14958 0.261271C0.982288 0.42856 0.888306 0.655453 0.888306 0.892036C0.888306 1.12862 0.982288 1.35551 1.14958 1.5228L3.1396 3.55724L4.6943 5.06752L11.1885 11.5528L11.2507 11.615L12.4412 12.8055L12.9653 13.3296L15.364 15.7372C15.4466 15.8205 15.5448 15.8866 15.6531 15.9317C15.7614 15.9768 15.8775 16 15.9948 16C16.112 16 16.2282 15.9768 16.3364 15.9317C16.4447 15.8866 16.5429 15.8205 16.6255 15.7372C16.7088 15.6546 16.7749 15.5564 16.82 15.4481C16.8651 15.3398 16.8883 15.2237 16.8883 15.1064C16.8883 14.9892 16.8651 14.873 16.82 14.7648C16.7749 14.6565 16.7088 14.5583 16.6255 14.4757Z" fill="#A6ACC3"/>
</svg>
